<?xml version="1.0" encoding="utf-8"?>
<!-- Generator: Adobe Illustrator 28.3.0, SVG Export Plug-In . SVG Version: 6.00 Build 0)  -->
<svg version="1.1" id="Layer_1" xmlns="http://www.w3.org/2000/svg" xmlns:xlink="http://www.w3.org/1999/xlink" x="0px" y="0px"
	 viewBox="0 0 600 337.5" style="enable-background:new 0 0 600 337.5;" xml:space="preserve">
<style type="text/css">
	.st0{fill:#F5DCD5;}
	.st1{fill:#C5D1EC;}
	.st2{fill:#F6F9DA;}
	.st3{fill:#61748E;}
	.st4{fill:#D6DCDF;}
	.st5{fill:#F4CBBD;}
	.st6{fill:#DCE2E4;}
	.st7{fill:#738CD7;}
	.st8{fill:#7286CF;}
	.st9{fill:#5771CF;}
	.st10{fill:#EFC920;}
	.st11{fill:#63768F;}
	.st12{fill:#637790;}
	.st13{fill:#F2C6B4;}
	.st14{fill:#F2E161;}
	.st15{fill:#6E8097;}
	.st16{fill:#7C8DA2;}
	.st17{fill:#F8F9FA;}
	.st18{fill:#F7F8F9;}
	.st19{fill:#687B93;}
	.st20{fill:#4A5FA7;}
	.st21{fill:#D1A197;}
	.st22{fill:#F3CABD;}
	.st23{fill:#CA765E;}
	.st24{fill:#040304;}
	.st25{fill:#24201F;}
	.st26{fill:#CC7C66;}
	.st27{fill:#1B1818;}
	.st28{fill:#191716;}
	.st29{fill:#312C2A;}
	.st30{fill:#B2C3C7;}
	.st31{fill:#EFF2F4;}
	.st32{fill:#475DA8;}
	.st33{fill:#F7F9E4;}
	.st34{fill:#020102;}
</style>
<g>
	<path class="st0" d="M316.9,127.6c-0.3,3.8,1.5,4.9,5.2,4.8c8.1-0.2,16.2,0.2,24.2-0.2c4.6-0.2,6.8,1.8,8.9,5.6
		c9.6,16.6,18,33.9,25.6,51.5c1.5,2.8,6.2,0.5,7,4.4c-1.2,1.2-2.4,2.4-1.4,4.5c7.2,14.7,12.7,30.3,21,44.6c0.7,1.3-0.8,2.8,0.6,4
		c6.2,13.9,14.7,26.9,17.3,42.3c0.5,3.1,0.3,6.1-0.1,9.1c-0.5,3.3,0.8,4,3.9,3.2c2.5-0.6,5.1-2.1,7.7-0.2c1.4,4.3-1.9,4.8-4.6,5.6
		c-4,1.2-8.5,0.4-11.9,3.5c-3.9,3.6-5.7,9-10.6,11.6c-14.2,1.2-28.4,1.2-42.6,0c-1.7-1-2.2-3.6-4.8-3.4c-1.5-2-4.9,0-6.1-2.8
		c0-1.1,0.4-2.4-0.1-3.4c-6.7-13.8-5.1-28.9-7-43.4c-0.9-6.3-0.9-12.6-1.9-18.9c-0.7-5.3-0.3-10.7-1.4-15.9
		c-0.9-14.6-2.9-29-3.7-43.6c0.3-1.6-0.4-3-0.6-4.5c-0.4-2.5-0.3-5-0.3-7.4c-0.1-2.5-1-4.4-3-5.9c-8.1-6.4-16-13.1-24.6-18.9
		c-0.8-0.8-1.3-1.8-1.4-3c1.5-3.6,5.1-1.7,8.8-3.3c-7.9-3-14.3-6.8-21.4-9.4c-2.6-1.6-8-2-7.4-5c0.8-3.8,5.8-2.1,9-2.2
		C306.5,130.4,312.2,131.4,316.9,127.6z"/>
	<path class="st0" d="M110,321.9c-7.7-5.5-11.6-13.3-14-22.2c-0.9-0.9-1.8-1.7-1.2-3.2c0-2.3,0.1-4.7,0.1-7
		c-1.3-10.7,9.2-27.9,25.1-32.2c7.6-2,15.1-2.3,22.7,0.3c5.8,2,11.5,4.5,17.4,6.1c29.4,10.3,59.1,19.8,88.3,30.8
		c10.5,4,21.2,3,31.8,4.7c8.4,1.4,16.5,3.6,24.4,6.7c5.9,2.3,10.3,6.5,13.6,12c0.4,1.4,0.6,2.7-1,3.6c-2.6,1.2-5.3,0.9-8,0.9
		c-63.2,0-126.4,0-189.6,0.1C116.5,322.7,113.3,322.1,110,321.9z"/>
	<path class="st0" d="M244.1,231.8c0.5-1.2,1.5-2.4,0.3-3.7c-8.8-9.2-8.6-20.8-8.3-32.3c0.1-3.1-0.2-5.6-3.5-6.8
		c2.4-5.1,1.6-10.5,1.7-15.8c0.1-3.3-0.2-6.5,0.6-9.7c2-10.5,2-10.6,12.8-9.9c3.8,0.2,7.7-0.7,11.2,1.5c1,1.3,0.4,2-0.9,2.6
		c3.1-0.2,5.8-1.6,8.5-2.9c8.6-0.4,17.2,0.2,25.8,0.6c2.5,0.8,4.4,2.8,6.8,3.8c2.2,0.9,1.2-1.1,1.8-1.5c2-1.6,4.2-1.5,6.5-0.6
		c2.6,2,1.4,6.8,5.5,7.7c0.5,0.3,1,0.6,1.4,1c4.4,5.6,5.7,11.5,2.2,18.1c-0.4,2.3,1.8,1.3,2.7,2c1.2,0.8,2.3,1.5,0.6,2.9
		c-10.1,2.2-10.1,2.2-9.4,13.3c0.1,1.3,0,2.6-0.3,4c-2.1,6.9-2.9,14.1-7.1,20.5c-11,17-35.2,21.2-50.9,10.9c-2.4-1.6-4.9-3-7.7-3.9
		C243.9,232.9,243.8,232.4,244.1,231.8z"/>
	<path class="st1" d="M244.1,231.8c0,0.4,0,0.8,0,1.1c0.8,4.5-2.9,7.5-3.8,11.5c-1.9,7.4-7.6,7.9-13.8,7.5c-11.7,0.2-23.3,0.1-35,0
		c-10.4-0.1-19.7,2.6-27,10.3c-1.4,1.4-2.9,2.4-4.8,2.9c-6.9-2.3-13.7-5-20.7-6.8c-19.7-5-39.3,7.9-42.8,28.1
		c-0.2,1.1-0.1,2.3-1.2,3.1c-6.3-3.3-12.7-6.2-18.5-10.6c-3.9-3-3.8-4.4,0.1-6.9c9.2-5.9,19.1-10.7,29.2-14.9
		c21.9-9.2,45-14.2,68.2-18c19.2-3.2,38.5-6.2,58.2-6.3C236.1,232.8,240.1,231.3,244.1,231.8z"/>
	<path class="st2" d="M222,143.9c-8,1-15.7,3.5-23.3,6c-6.2,2-9.6-0.8-11.4-5.5c-5.9-15.6-6.5-31.3,0.7-46.8c2-4.4,5.5-5.5,9.4-4.4
		c14.5,4.1,29,8.4,43.5,12.7c-1.6,6-6.2,11-6.3,17.6c-0.9,2.5-1.5,5.1-1.9,7.8c-0.4,2.8-1.7,5.3-4.8,5.8c-3.4,0.5-4.3,2.8-4.9,5.6
		C223,143.1,222.6,143.6,222,143.9z"/>
	<path class="st3" d="M420.1,310.3c0.1-2.5,1.8-3,3.8-3.3c3.2-0.6,6.3-1.4,9.5-2c2.3-0.4,3.5-1.3,2.8-3.8c-1.7-1.8-2-4.1-2-6.4
		c0-14.6-0.3-29.2,0.1-43.8c-0.1-13.7,0-27.3-0.1-41c-0.1-6.8-0.6-7.5-7.3-8.7c-10.8-2-21.6-3.9-32.4-5.4c-2.4-0.4-5.1-0.2-6.9-2.3
		c-2.1-1.7-6.4,0.2-6.9-4.2c18.1,2.4,36,5.6,54,8.9c7.3,1.4,14.2-2.9,21.3-4.2c2.3-0.4,4.5-2.4,8.1-0.1c-6.5,3.4-13.2,3.5-20,6.4
		c6.3,1.7,12,3.2,17.6,4.8c15.8,4.4,31.3,9.6,45.4,18c2.6,1.5,4.6,0.9,7,0.1c3.3-1.1,6.4-3.5,11.1-2.8c-3.4,3.8-8.1,3.5-11.4,6.1
		c3.5,3.2,7.2,6.2,10.4,9.6c9.4,10.1,9.8,21.6,1.1,32.3c-7.9,9.7-18.6,15.3-30.1,19.7c2-4.1,6.4-4.8,9.8-7c5.4-3.5,5.4-5,0-8.3
		C486,261,464.9,254.6,443,250.5c-1.1-0.2-2.7-1-3.4,0.9c2.6,3.8,1.6,8.2,1.7,12.3c0.1,9.7,0.1,9.7,9.3,11.6
		c7.3,1.6,14.6,3.3,21.7,5.6c2,0.7,4.1,1.2,5.3,3.1c2.4,1.9,8.5,1.9,7.5,4.1c-1.4,3.2-5.2-1.1-8.1-1.3c-1.7-0.1-3.3-0.6-5-1
		c-7.1,0.6-13.4-2.9-20.2-4.1c-11.5-2-10.5-2.6-10.6,8.8c0,2.8,0.5,5.8-1.6,8.3c-0.9,3.5-0.4,5,3.9,3.9c11.4-2.9,22.6-6,33.7-9.7
		c1.1-0.4,2.8-1.8,3.5-0.1c0.9,2.2-1.4,2.2-2.8,2.7C459.2,302.2,439.8,306.8,420.1,310.3z"/>
	<path class="st4" d="M172.8,99.9c-1.7,2.9-3.8,2.3-5.8,2.3c-14.8,0.1-29.7,0.2-44.5-0.1c-4.2-0.1-5.8,1-5.7,5.4
		c0.4,12.9-1.5,10.6,10.6,10.8c5.8,0.1,11.6,0.2,17.3,0c3.6-0.1,4.5,1.3,4.6,4.7c0.5,16.1,0.5,16.1-15.7,16.1
		c-31.6,0-63.2-0.1-94.8,0.1c-5,0-6.7-1.1-6.6-6.4c0.3-12.2,0.1-12.2-12.5-12.2c-4.8,0-9.6-0.2-14.4,0.1C1.7,121,0.1,120,0,115.7
		c-0.2-15.8-0.3-15.8,15.5-15.8c2.1,0,4.2,0,6.4,0c10.7,0,13-3,10.7-13.6c-0.6-2.8-2.4-2.5-4.3-2.6C23,83.4,17.7,84.4,12,83
		c1.3-2.1,3-1.6,4.3-1.6c42.6,0,85.2,0,127.7-0.1c4,0,5.3,1.1,5.3,5.2c0.1,13.4,0.2,13.4,13.7,13.4
		C166.3,99.9,169.6,99.9,172.8,99.9z"/>
	<path class="st5" d="M110,321.9c1.9-2,4.4-1.1,6.6-1.1c57.9-0.1,115.8,0,173.7-0.1c1.9,0,5.7,1.9,4.5-3.2
		c7.3,5.8,15.7,2.4,23.4,3.3c0.4-0.3,0.8-0.3,1.1,0.2c0.6,7.9,0.6,7.9-7.6,7.9c-59.7,0-119.4-0.1-179.1,0.1
		C124.3,329,116.8,326.7,110,321.9z"/>
	<path class="st6" d="M390.2,30.5c-3.5,0-7,0.3-10.4-0.1c-5.1-0.6-6.8,1.8-7.2,6.4c-0.9,12.2-1,12.1-13.1,12.1
		c-13.1,0-26.2-0.2-39.3,0.1c-4.9,0.1-6.9-1.3-6.8-6.5c0.2-12.1-0.1-12.1-12-12.1c-5.8,0-11.6-0.1-17.3,0c-3.6,0.1-5.3-1.3-5.2-5
		c0.4-20.5-2.9-16.8,15.8-16.9c31.6-0.2,63.1,0.1,94.7-0.2c5.7,0,8.4,1.5,7.5,7.5c-0.2,1.3,0.1,2.7-0.1,4c-0.8,5.3,0.8,8.1,6.7,7.2
		c1.4-0.2,4.2-1.1,4.1,1.5c0,2-2.5,1.9-4.3,1.9C399,30.5,394.6,30.5,390.2,30.5z"/>
	<path class="st4" d="M437.9,119.7c1.4-2,3.3-1.3,4.8-1.3c32.9-0.1,65.9,0.1,98.8-0.1c4.7,0,5.9,1.4,5.8,5.9
		c-0.1,12.7,0,12.7,12.6,12.7c11.4,0,22.7,0,34.1,0c1.9,0,3.9-0.5,6,0.9c-3.2,2.5-6.6,1.3-9.7,1.3c-13.8,0.2-13.9,0.1-14.1,13.6
		c0,3.7-1,5-4.9,5c-35.8-0.1-71.6-0.1-107.5,0c-3.6,0-4.5-1.3-4.6-4.7c-0.5-16.1-0.5-16.1,15.7-16.1c1.2,0,2.3,0,3.5,0
		c9.7-0.1,8.7,1.1,8.7-8.6c0-7.6,0-7.6-7.4-7.6c-12.1,0-24.3,0-36.4,0C441.5,120.7,439.5,121.3,437.9,119.7z"/>
	<path class="st7" d="M251.3,102c22.5-14.3,55.9-1.9,62.5,23.2c-1.4,1.7-3.3,1.8-5.2,1.9c-11.5,0.3-22.9,0.4-34.3-1.8
		c-2.1-0.8-2.5-2.8-2.7-4.7c-1.2-10.1-7.1-15.3-16.8-16.9C253.4,103.5,252.1,103.3,251.3,102z"/>
	<path class="st8" d="M222,143.9c0.2-0.3,0.3-0.7,0.4-1c5.7-4.1,12.5-4.7,19.1-6c0.6,0,1.2,0.2,1.8,0.3c7,3.5,13.8,3.7,20.7-0.5
		c1.3-0.8,2.8-1.2,4.3-1.3c10.9,0.3,21.7,1,32.5,1.6c6.8,3,13.6,6,20.4,9c1.1,0.5,2.5,1,2.2,2.3c-0.3,1.8-2.1,1-3.3,1.3
		c-2.5,0.5-5.4-1.2-7.5,1.2c-3.4-2.6-4.1,2.1-6.4,2.4c-8.5,0.4-16.9-0.2-25.3-0.7c-13.2-0.9-26.5-0.1-39.7-2.1
		c-1.1-0.2-2.3-0.3-3.4-0.6c-1.1-0.4-2-1-2.5-2c-2.5-4.8-4.2-2.5-5.8,0.7c-0.4,0.4-0.9,0.5-1.5,0.5C225,148.3,221.2,148.8,222,143.9
		z"/>
	<path class="st1" d="M477.6,284c-11.5-3-22.8-6.6-34.5-8.4c-2.9-0.4-3.8-2-3.7-4.7c0.2-6.5,0.2-13,0.2-19.5
		c15,5.1,29.8,10.7,43.2,19.5c6.6,4.4,6.6,4.4,0.4,9.2C481.4,281.4,479.5,282.7,477.6,284z"/>
	<path class="st9" d="M300.8,137c-7.1,2.3-14.3,1.2-21.4,0.7c-4.1-0.3-8.3-0.5-12.5-0.9c0.6-5,3.6-8.7,6.3-12.6
		c13.5,0.6,27,1.8,40.5,1c1,0.8,2.1,1.5,3.1,2.3c-0.4,3.6-2,5.1-6,4.8c-5.9-0.5-11.9-0.1-19.4-0.1
		C295.4,134.2,298.1,135.6,300.8,137z"/>
	<path class="st10" d="M273.3,124.2c-0.7,4.9-3.4,8.8-6.3,12.6c-7.8,5-15.7,7.2-24.1,1.3c1.4-4.4,5.9-3.2,8.8-4.7
		c8.9-2.1,12.7-5.6,12.8-11.5c0-6.2-4.3-10-13.7-11.8c-2-0.7-4.2-0.8-6-1.9c-1.2-0.7-3-1.4-1.5-3.4c2.6-1.2,5.2-2.5,8.1-2.8
		C266,102.5,272.8,109.4,273.3,124.2z"/>
	<path class="st11" d="M94.9,296.6c0.4,1.1,0.8,2.1,1.2,3.2c-19.5-5.6-38.5-12.2-54.5-25.3c-10.7-8.8-14.5-19.3-10.7-29.2
		c2.4-6.1,6.6-10.9,11.7-14.7c16.9-12.8,36.4-19.7,56.5-25.2c0.4-0.1,1,0.3,1.8,0.5c-0.9,2.6-3.2,2.5-5.1,3.1
		c-15.1,4.6-29.9,10-43.5,18.2c-6.3,3.8-12.2,8.1-16.4,14.3c-5.4,8-5.1,16.5,0.8,24.1c5.8,7.5,13.4,12.7,21.7,17
		C70.1,288.4,82.1,293.5,94.9,296.6z"/>
	<path class="st1" d="M439.7,298.9c-0.1-5.7-0.1-11.4-0.3-17.2c-0.1-2.5,0.4-4.3,3.5-3.5c9.8,2.3,19.8,3.6,29.1,7.7
		C462,292,451.4,296.7,439.7,298.9z"/>
	<path class="st12" d="M228.1,187.8c-15.2,1.8-30.5,2.3-45.8,4.3c-18.7,2.4-37.2,5.5-55.7,9c-2.4,0.5-7,2.2-7.2,0.3
		c-0.3-3.7,4.4-2.3,6.8-2.8c32.8-6.7,65.8-11.5,99.3-13.4C227.4,185.1,228.3,185.9,228.1,187.8z"/>
	<path class="st13" d="M228.1,187.8c-0.9-0.9-1.7-1.7-2.6-2.6c-4.3-6.4-4-12.5,1-18.3c2.7-3.2,1.1-7,1.4-10.5c0.2-2.5,0.1-5,0.1-7.5
		c0.2-0.1,0.5-0.2,0.7-0.2c0.6,0.1,1,0.4,1.3,0.9c0.9,2.1,0.9,4.5,0.7,6.7c-0.4,4,0.8,6.5,5.1,6.8c0.2,0.2,0.3,0.4,0.5,0.6
		c-0.1,7-0.2,14-0.2,21c0,2.6-0.2,4.6-3.5,4.4C231.1,188.6,229.6,188.2,228.1,187.8z"/>
	<path class="st14" d="M252.4,134.5c-2.9,1.8-6.8,1.2-9.5,3.6c-0.4,0-0.8-0.1-1.1-0.1c-5.9-3.2-9.5-7.7-8.1-14.9
		c-0.2-6.9,3-12.3,7.4-17.2c0.7-0.4,1.4-0.7,2.2-1.1c1.3,4,5.9,1.9,8,4.3c-0.5,1.9-2.2,2.5-3.5,3.5c-7.2,5.6-6.4,14.8,1.7,19
		C250.5,132.4,252.4,132.4,252.4,134.5z"/>
	<path class="st5" d="M366.9,321.9c1.6-1.7,3.6-1,5.4-1c10.6-0.1,21.2-0.1,31.7,0c1.8,0,3.9-0.7,5.4,1.1
		C395.3,331.6,381.1,331.3,366.9,321.9z"/>
	<path class="st15" d="M319.3,321c-0.3-0.1-0.7-0.2-1.1-0.2c-0.4-0.7-0.7-1.3-1.1-2c3-3.3,7.2-2.2,10.8-2.8c7.6-1.2,15.4-0.2,23-1.5
		c1.9-0.3,3.9,0,5.4,1.4c1.9,0.8,5.2-1.5,5.7,2.5C347.8,319.3,333.6,320.1,319.3,321z"/>
	<path class="st4" d="M1,137.3c5.6,0,11.3,0,16.9,0c0,0.4,0,0.7,0.1,1.1c-5.6,0-11.3,0-16.9,0C1,138.1,1,137.7,1,137.3z"/>
	<path class="st16" d="M113.3,202.8c-0.2,1.8-1.9,1.5-2.9,1.9c-1,0.4-1.9-0.1-2-1.2c-0.1-1.5,1.2-1.7,2.3-1.8
		C111.7,201.5,112.9,201.2,113.3,202.8z"/>
	<path class="st17" d="M356.4,315.9c-13.1,1-26.2,1.9-39.3,2.9c-4.2-6.2-9.8-10.6-17.1-12.9c-9.9-3.1-19.9-5.9-30.3-5.9
		c-6.8,0-13.3-1.1-19.7-3.3c-30-10.6-60.2-21-90.3-31.5c7.6-10.3,17.9-15.2,30.7-15c12.1,0.1,24.3,0.1,36.4,0.1
		c1,0.9,1.9,1.9,2.3,3.3c3.7,14.6,14.3,21.9,27.8,25.5c13.4,3.6,26.7,2.4,39.4-3.6c9.1-4.3,15.7-11,18.2-21.1
		c0.6-2.3,1.3-4.5,3.9-5.4c8.6-1.3,17.2-0.6,25.7-0.5c1.6,0,3,0.6,4.2,1.7c1.9,6.2,1.5,12.7,2.3,19c1.2,10.7,2.2,21.5,3.4,32.2
		c0.4,3.6,1.5,7.1,4,10C360,313.9,358.5,314.9,356.4,315.9z"/>
	<path class="st17" d="M387.7,193.5c15.3,0.9,30.3,4.4,45.3,7c2.6,0.5,3.4,1.8,3.4,4.3c-0.1,15.1-0.2,30.3-0.3,45.4
		c-0.8,0.7-1.7,1-2.7,0.8c-7.2-2.1-14.7-2.7-21.4-6.2c-0.5-0.4,0.1-2.5-1.8-1.2c-0.9,0.6-2.1,0.6-3-0.2c-1.7-0.2-2.7-1.1-3.4-2.7
		c-6.5-14.5-13-29-19.7-43.4C382,192.7,385.6,193.9,387.7,193.5z"/>
	<path class="st17" d="M308.9,206.4c0.8-3.9-0.7-7.5-1.1-11.3c-0.6-5.6,1.7-7.7,7.1-7.3c1.9,0.1,3.8-0.1,5.7-0.1c2-2,4.5-1.6,7-1.5
		c5.4,0.1,10.9,0.4,16,2.5c1.2,15.1,2.4,30.2,3.5,45.3c-1.2,1.1-2.6,1.7-4.2,1.5c-10.6-1.1-21.3-1.1-31.8-2.9
		c-1.9-1-2.5-2.9-2.6-4.8C308.3,220.7,307.1,213.5,308.9,206.4z"/>
	<path class="st1" d="M411.9,243.6c8.1,2.2,16.2,4.4,24.2,6.7c0,17,0.1,34,0.1,50.9c-4.3,1-8.5,2-13.6,3.2
		c5.3-22.6-8.8-39.3-16.7-57.8C407.2,244.1,409.2,243.2,411.9,243.6z"/>
	<path class="st1" d="M311.2,231.8c12-0.4,23.9,1.7,35.9,2.3c1.9,5.3,1,10.8,1.2,16.2c-10.4,0-20.8,0.1-31.3,0.1
		c-5.1,1.7-6.7,0.9-7.4-3.9c-0.4-2.4-0.1-4.9,0-7.3C309.4,236.5,309.2,233.9,311.2,231.8z"/>
	<path class="st18" d="M314.7,184.2c4.6-6.6,1.5-12.6-1.3-18.7c-2.2-4.2-2.4-8.3,0.1-12.4c4.6-0.5,6.5,3.7,9.6,5.8
		c5.6,3.7,10.6,8.3,15.9,12.3c5.3,3.9,2.8,9.5,3.4,14.4c-3.2,2.9-6.9,1.2-10.4,1C326.2,186.4,320.3,186.5,314.7,184.2z"/>
	<path class="st19" d="M314.7,184.2c9.2,0.4,18.5,0.9,27.7,1.3c0.4,1,0.7,2.1,1.1,3.1c-7.7-0.3-15.3-0.7-23-1
		c-1.9-1.4-4.2-0.2-6.1-0.9C311.8,185.9,314.1,185,314.7,184.2z"/>
	<path class="st20" d="M313.6,153.2c0,4.1-0.1,8.3-0.1,12.4c0,0-0.5,0.1-0.5,0.1l-0.5-0.1c-2-1.7-1.5-4.1-1.6-6.4
		c-0.1-2.3,0.1-4.6-2.3-6c-0.4-0.3-0.8-0.7-1.1-1.2c0.7-1.6-0.6-4.4,2.6-4.7c2.8-0.2,0.5,3.1,2.4,3.4
		C312.9,151.5,313.2,152.4,313.6,153.2z"/>
	<path class="st21" d="M411.9,243.6c-2,1-4,2-5.9,3.1c-3.8-2.8,1.6-1.9,1.3-3.2c1.6-0.5,3.2-1,4.8-1.4c0.5-0.1,1.6-1.1,1.5,0.4
		C413.6,242.8,412.5,243.2,411.9,243.6z"/>
	<path class="st5" d="M311.2,231.8c0,2.3,0,4.6,0,6.9c-1,2-2.7,3.2-4.6,4.2c-15.9,8.2-32.8,10.8-50.4,8.6c-4.4-0.6-8.7-1.4-13-2.5
		c-2.7-0.7-5.3-1.9-3.6-5.6c0.8-3.8,3.1-6.9,4.6-10.4c2.7-1.8,4.7-0.1,6.6,1.4c19.4,15.2,51.5,4.7,56-21.5c0.4-2.2,0.5-4.6,2.1-6.4
		C309.7,214.9,309.4,223.4,311.2,231.8z"/>
	<path class="st22" d="M236.4,148.6c23.7,1.1,47.4,2.3,71.1,3.4c0,0,0.4,0.1,0.4,0.1c1.5,2,1.7,3.8-0.3,5.6
		c-2.2,0.2-4.6-0.6-6.7,0.7c-2.7,1.2-4.7-0.2-6.7-1.8c-8.3-0.6-16.7,0.9-24.9-1.2c-1.1-0.3-2.3,0-3.1,1c-2.3,0.7-4.7,1.6-7-0.3
		c-6.2-2-12.8,0.1-19.1-1.9c-2.1-0.6-2.9,1.1-2.9,3.1c-0.1,2,0.6,4.2-0.9,6c0,0-0.3-0.1-0.3-0.1c-2.6-4.3-1.7-8.9-0.9-13.4
		C235.3,149.4,235.8,148.9,236.4,148.6z"/>
	<path class="st23" d="M284,192.7c-5.1,1.4-9.3,0.6-13.4,0.8c-1.9,0.1-2.2-1-1.6-2.6c4.1-10,8.2-20.1,12.4-30.2
		c2.8,1.5,1,3.1,0.6,4.1c-2.8,7.1-5.6,14.3-8.8,21.3c-2.1,4.6-0.7,5.7,3.8,5.3C279,191.1,281.2,190.6,284,192.7z"/>
	<path class="st24" d="M307.6,157.8c0.1-1.9,0.2-3.8,0.3-5.6c3.5-0.8,4.9,0.6,4.6,4.2c-0.2,3,0,6.1,0.1,9.2
		C306.7,165.6,308,161.1,307.6,157.8z"/>
	<path class="st25" d="M263.7,171.4c0,2-1,3.4-3,3.4c-1.7,0-2.7-1.1-2.8-2.9c-0.1-2.1,0.9-3.4,2.9-3.5
		C262.5,168.4,263.5,169.6,263.7,171.4z"/>
	<path class="st26" d="M277,209.9c3.5-4.6,8.1-6.4,13.9-5.2C286.4,206.7,281.3,207.1,277,209.9z"/>
	<path class="st27" d="M296.9,171.4c-0.2,2.1-1.1,3.3-2.9,3.3c-2.2,0-2.8-1.6-2.7-3.6c0.1-1.8,1.1-2.9,3-2.7
		C296.2,168.7,296.8,170.1,296.9,171.4z"/>
	<path class="st28" d="M259.2,156.3c2.3,0.1,4.6,0.2,7,0.3c-4.3,2.9-9,2.1-15,2.4C254.3,155.8,257,157.1,259.2,156.3z"/>
	<path class="st29" d="M294.2,156.7c2.2,0.6,4.5,1.2,6.7,1.8c1,0.5,2.7,0.6,2.4,2c-0.3,1.6-2.1,0.9-2.8,0.4
		C298.4,159.5,294.4,160.8,294.2,156.7z"/>
	<path class="st0" d="M239.6,243.3c-0.5,3.7,2.6,3.9,4.9,4.4c23.4,5.3,45.7,3.1,66.8-9c0,1.9,0.3,3.8,0,5.6c-0.6,4.6,1.1,6.7,5.8,6
		c-5.1,19.5-15.2,27.9-36,31.4c-10.2,1.7-19.9,0.8-29.3-2.6c-13.5-4.9-22.8-13.8-24.9-28.8C232.8,251,237.7,250.1,239.6,243.3z"/>
	<path class="st30" d="M233.6,123.1c0.5,6.2,4.1,10.6,8.1,14.9c-6.4,1.6-12.9,3.2-19.3,4.9c-0.6-4.4-0.6-8,5.7-7.3
		c2.6,0.3,3.1-2.4,3.3-4.5C231.5,128.2,231.9,125.5,233.6,123.1z"/>
	<path class="st17" d="M509,259c0,2.9-0.2,5.8,0,8.7c0.3,3.9-1.3,3.8-3.9,2.1c-18.8-12-39.9-17.8-61.5-21.8
		c-2.6-0.5-4.3-1.1-4.2-4.3c0.2-6,0.1-11.9,0-17.9c0-2.4,0.6-3.4,3.4-2.9c20.5,4.3,40.8,9.3,59.2,20.1c5.3,3.1,8.3,6.2,7.1,12.5
		C508.8,256.6,509,257.8,509,259z"/>
	<path class="st17" d="M509,244.1c-5.2-2.8-9.5-5.2-13.9-7.5c-16.2-8.5-33.8-12.5-51.4-16.1c-3.4-0.7-4.3-2-4.3-5.2
		c-0.2-13.2-0.3-13.3,12.4-10.1c17.9,4.5,35.4,10.1,51.8,18.8c4.1,2.2,6.1,4.6,5.5,9.4C508.6,236.5,509,239.8,509,244.1z"/>
	<path class="st18" d="M511.7,276.1c0-15.4,0-30.6,0-45.9c7.6,2,16.5,12.8,17.1,20.8C529.6,260.6,522.3,271.5,511.7,276.1z"/>
	<path class="st17" d="M61.7,99.9c-7.5,0-15-0.1-22.5,0c-3.1,0.1-4.3-0.9-4.5-4.3c-0.5-12-0.6-12,11.1-12c12.5,0,25,0.2,37.5-0.1
		c4.4-0.1,6.1,1,6,5.7c-0.5,12.4,1.4,10.3-10.3,10.5C73.3,100,67.5,99.9,61.7,99.9z"/>
	<path class="st17" d="M120,99.9c-7.5,0-15-0.2-22.5,0.1c-3.8,0.1-5-1.3-4.9-5c0.3-13.6-1.5-11.1,10.7-11.2
		c12.9-0.2,25.7,0.1,38.6-0.1c4.1-0.1,5.3,1.3,5.2,5.3c-0.4,13.2,1.6,10.7-11,11C130.8,100,125.4,99.9,120,99.9z"/>
	<path class="st17" d="M29.9,102.3c7.3,0,14.6,0.1,21.9-0.1c3.6-0.1,5.2,0.8,5.1,4.8c-0.4,13.9,1.6,11.2-11.1,11.4
		c-12.3,0.2-24.6-0.2-36.9,0.1c-4.9,0.1-6.8-1-6.6-6.3c0.5-11.7-1.3-9.8,10.3-10C18.4,102.2,24.1,102.2,29.9,102.3
		C29.9,102.2,29.9,102.3,29.9,102.3z"/>
	<path class="st17" d="M62.1,136.9c-7.5,0-15-0.1-22.5,0c-3.3,0.1-4.9-0.7-4.8-4.4c0.3-14.5-1.6-11.5,11.3-11.7
		c12.5-0.2,25,0.2,37.4-0.2c4.8-0.1,5.9,1.6,5.7,6c-0.4,12.2,1.5,10.1-10.5,10.3C73.2,137,67.7,136.9,62.1,136.9z"/>
	<path class="st17" d="M120.2,120.7c7.5,0,15,0.1,22.5,0c3.2-0.1,4.4,1.1,4.4,4.3c-0.3,14.7,1.6,11.7-11.2,11.8
		c-12.7,0.2-25.4-0.1-38,0.1c-4,0.1-5.4-1.1-5.3-5.2c0.4-13.3-1.5-10.7,10.9-11c2.9-0.1,5.8,0,8.6,0
		C114.9,120.8,117.5,120.8,120.2,120.7C120.2,120.8,120.2,120.8,120.2,120.7z"/>
	<path class="st31" d="M87.5,118.4c-7.5,0-15-0.1-22.5,0.1c-3.4,0.1-4.9-0.9-4.8-4.5c0.3-14.4-1.6-11.5,11.4-11.7
		c12.5-0.2,25,0.1,37.4-0.1c4.2-0.1,5.8,1,5.7,5.4c-0.4,12.9,1.4,10.6-10.5,10.8C98.6,118.5,93,118.4,87.5,118.4z"/>
	<path class="st17" d="M309.6,27.1c-7.3,0-14.6-0.2-21.9,0.1c-4.5,0.2-5.6-1.5-5.4-5.7c0.3-11-1-9.4,9.6-9.5
		c12.9-0.1,25.7,0.2,38.6-0.1c5.3-0.2,7,1.7,6.2,6.6c-0.2,1.1-0.2,2.3,0,3.5c0.5,4.1-1.2,5.4-5.2,5.2
		C324.2,26.9,316.9,27.1,309.6,27.1z"/>
	<path class="st31" d="M365.9,27.1c-7.3,0-14.6-0.2-21.9,0.1c-3.7,0.1-5.1-1-5-4.9c0.3-12.3-1.1-10.1,10-10.2
		c12.9-0.1,25.7,0.1,38.6-0.1c4.4-0.1,6.1,1,5.9,5.8c-0.4,10.8,0.9,9.2-9.1,9.3C378.2,27.1,372,27.1,365.9,27.1z"/>
	<path class="st17" d="M342.9,45.6c-7.3,0-14.6-0.1-21.9,0.1c-3.6,0.1-5.2-0.8-5.1-4.8c0.3-12.5-1-10.2,9.9-10.3
		c12.9-0.1,25.7,0.2,38.6-0.1c5-0.1,6.6,1.6,6,6.3c-0.2,1.5-0.1,3.1,0,4.6c0.3,3.3-1.1,4.4-4.4,4.3
		C358.2,45.5,350.5,45.6,342.9,45.6z"/>
	<path class="st17" d="M517.8,136.9c-7.5,0-15-0.1-22.5,0c-3.3,0.1-4.9-0.7-4.8-4.5c0.3-14.6-1.5-11.5,11.3-11.7
		c12.5-0.2,25,0.2,37.5-0.2c4.8-0.1,5.9,1.6,5.7,6c-0.4,12.2,1.5,10.1-10.5,10.3C528.9,137,523.3,136.9,517.8,136.9z"/>
	<path class="st17" d="M488.9,155.4c-7.5,0-15-0.1-22.5,0c-3.3,0.1-4.9-0.7-4.8-4.5c0.3-14.5-1.6-11.5,11.3-11.7
		c12.5-0.2,25,0.2,37.5-0.1c4.7-0.1,5.9,1.6,5.7,6c-0.4,12.2,1.5,10.1-10.5,10.3C500,155.5,494.4,155.4,488.9,155.4z"/>
	<path class="st31" d="M546.5,155.4c-7.5,0-15-0.1-22.5,0.1c-3.6,0.1-4.7-1.2-4.6-4.7c0.3-14.1-1.5-11.4,10.9-11.5
		c12.9-0.2,25.7,0.1,38.6-0.1c3.8-0.1,5,1.3,4.9,5c-0.3,13.6,1.4,11-10.7,11.2C557.6,155.5,552,155.4,546.5,155.4z"/>
	<path class="st32" d="M228.7,148.6c1.1-2-1-5.7,3.4-5.8c4.3-0.1,3.8,3.2,4.3,5.8c0,0-0.4,0.2-0.4,0.2c-2.3,1.7-4.6,1.5-7,0
		L228.7,148.6z"/>
	<path class="st33" d="M252.4,134.5c-10.2-3.7-13.8-10.4-10-18.4c1.8-3.8,5.3-5.3,8.7-6.9c6-0.3,10.9,1.7,13.7,7.3
		c2.2,4.5,1.6,8.9-1.4,12.9C260.7,133.1,256.7,134.2,252.4,134.5z"/>
	<path class="st34" d="M229,148.8c2.3,0,4.6,0,7,0c0,4.9,0,9.8,0,14.7c-2.1,0.3-4.1,0.6-6.9,1C229,159.2,229,154,229,148.8z"/>
</g>
</svg>
